# xmcd CD database file
#
# Track frame offsets:
#	150
#	16824
#	38617
#	57660
#	73554
#	97513
#
# Disc length: 1555 seconds
#
# Revision: 0
# Processed by: cddbd v1.5.2PL0 Copyright (c) Steve Scherf et al.
# Submitted via: CDex 1.51
#
DISCID=3e061106
DTITLE=LEÏLA MENDEZ - Chants Nomades
DYEAR=1900
DGENRE=Jazz
TTITLE0=Canto de Ossalina, Baden Powell
TTITLE1=Fel Shara,trad séfarad
TTITLE2=Aguès de marça, tom Jobim
TTITLE3=Dança da solodào, paulinho da Viola
TTITLE4=Dança da solodào, paulinho da Viola
TTITLE5=Chega de saudade, Tom jobim
EXTD=
EXTT0=
EXTT1=
EXTT2=
EXTT3=
EXTT4=
EXTT5=
PLAYORDER=
